<?xml version="1.0" standalone="no"?>
<!DOCTYPE svg PUBLIC "-//W3C//DTD SVG 20010904//EN"
 "http://www.w3.org/TR/2001/REC-SVG-20010904/DTD/svg10.dtd">
<svg version="1.0" xmlns="http://www.w3.org/2000/svg"
 width="500.000000pt" height="500.000000pt" viewBox="0 0 500.000000 500.000000"
 preserveAspectRatio="xMidYMid meet">
<metadata>
Created by potrace 1.14, written by Peter Selinger 2001-2017
</metadata>
<g transform="translate(0.000000,500.000000) scale(0.100000,-0.100000)"
fill="#000000" stroke="none">
<path d="M2315 4993 c-501 -41 -987 -232 -1380 -543 -106 -84 -314 -294 -397
-400 -280 -361 -443 -745 -515 -1210 -24 -160 -24 -520 0 -680 38 -244 92
-437 179 -640 363 -849 1156 -1424 2078 -1509 408 -38 852 36 1231 204 741
328 1279 998 1438 1790 37 185 46 278 46 495 0 265 -24 445 -91 685 -83 295
-242 606 -442 864 -83 107 -291 317 -397 401 -262 207 -600 379 -915 464 -253
68 -586 100 -835 79z m-74 -918 c56 -28 107 -85 125 -137 l16 -48 112 0 c109
0 114 -1 139 -26 34 -34 40 -66 35 -209 l-3 -117 -33 -29 -32 -29 -465 0 -465
0 -32 29 -33 29 0 147 0 147 33 29 c32 28 35 29 142 29 97 0 111 2 116 18 33
101 82 153 174 183 37 13 132 4 171 -16z m-699 -433 c3 -85 9 -116 24 -143 28
-47 76 -77 137 -84 29 -3 243 -5 477 -3 474 3 461 1 517 75 26 34 28 44 32
151 l3 114 162 -4 c150 -3 164 -5 206 -28 24 -14 58 -45 75 -68 l30 -44 3
-378 3 -377 -237 -409 c-130 -225 -242 -421 -250 -436 -8 -15 -41 -151 -74
-302 -56 -259 -59 -278 -46 -310 17 -40 42 -56 88 -56 43 0 53 8 280 213 108
98 195 186 209 210 l24 42 3 -360 c2 -244 -1 -372 -8 -398 -15 -51 -84 -119
-136 -135 -31 -9 -257 -12 -935 -12 l-894 0 -51 24 c-58 27 -97 72 -113 131
-9 29 -11 374 -9 1290 3 1203 4 1251 22 1288 22 44 69 83 123 103 25 9 88 13
184 14 l146 0 5 -108z m2307 -225 c78 -52 109 -147 77 -232 -10 -25 -22 -47
-27 -51 -9 -5 -325 171 -335 188 -11 17 43 83 87 106 58 30 142 26 198 -11z
m-259 -203 c34 -20 59 -41 57 -48 -6 -16 -708 -1229 -716 -1238 -3 -3 -37 11
-74 33 l-68 40 19 32 c11 18 171 295 357 617 186 322 339 588 342 593 7 12 20
8 83 -29z m205 -120 l64 -35 -91 -157 c-447 -773 -626 -1081 -635 -1091 -5 -6
-111 51 -125 66 -7 10 84 175 348 633 197 341 363 620 367 620 5 0 37 -16 72
-36z m-869 -1261 c85 -49 153 -91 151 -95 -1 -4 -84 -81 -185 -173 -192 -174
-223 -192 -230 -134 -2 14 18 120 43 234 55 251 56 255 62 255 3 0 75 -39 159
-87z"/>
<path d="M2061 3934 c-56 -47 -50 -147 13 -185 86 -52 183 9 173 111 -10 91
-115 134 -186 74z m104 -60 c20 -21 16 -43 -12 -61 -19 -13 -24 -12 -42 6 -13
13 -18 27 -14 38 13 35 42 42 68 17z"/>
<path d="M1549 3094 l-87 -87 -37 42 c-21 22 -45 41 -54 41 -21 0 -41 -19 -41
-38 0 -23 111 -132 135 -132 14 0 56 36 124 104 80 81 102 110 99 128 -2 16
-11 24 -28 26 -20 2 -43 -15 -111 -84z"/>
<path d="M1758 3079 c-21 -12 -23 -40 -6 -57 9 -9 129 -12 479 -12 412 0 469
2 483 16 9 8 16 19 16 24 0 5 -7 16 -16 24 -14 14 -70 16 -477 16 -295 0 -468
-4 -479 -11z"/>
<path d="M1550 2545 l-84 -85 -41 40 c-22 22 -48 40 -56 40 -19 0 -39 -20 -39
-38 0 -19 110 -132 129 -132 9 0 65 49 125 109 112 113 128 143 76 149 -20 2
-43 -15 -110 -83z"/>
<path d="M1752 2528 c-18 -18 -14 -46 7 -58 13 -6 182 -10 480 -10 404 0 461
2 475 16 9 8 16 19 16 24 0 5 -7 16 -16 24 -14 14 -71 16 -483 16 -350 0 -470
-3 -479 -12z"/>
<path d="M1556 2001 l-92 -91 -39 40 c-22 22 -46 40 -55 40 -19 0 -40 -19 -40
-36 0 -20 110 -134 129 -134 22 0 231 210 231 232 0 10 -9 22 -21 28 -18 10
-31 1 -113 -79z"/>
<path d="M1752 1978 c-18 -18 -14 -46 7 -58 27 -14 805 -14 832 0 23 13 25 55
3 64 -9 3 -199 6 -423 6 -303 0 -410 -3 -419 -12z"/>
<path d="M1555 1450 l-89 -90 -41 40 c-22 22 -48 40 -56 40 -18 0 -39 -19 -39
-35 0 -19 110 -135 129 -135 21 0 231 210 231 231 0 17 -19 39 -35 39 -6 0
-51 -40 -100 -90z"/>
<path d="M1752 1428 c-20 -20 -14 -48 14 -58 15 -6 170 -10 369 -10 199 0 354
4 369 10 28 10 34 38 14 58 -17 17 -749 17 -766 0z"/>
</g>
</svg>
